<svg width="183" height="183" viewBox="0 0 183 183" fill="none" xmlns="http://www.w3.org/2000/svg">
<circle cx="92" cy="91" r="69.65" fill="#EEEEEE" stroke="#222831" stroke-width="0.7" stroke-dasharray="3 3"/>
<circle cx="144" cy="45" r="10.65" fill="#FF4A01" stroke="#222831" stroke-width="0.7"/>
<path d="M139.71 49.8757V41.1367H141.371V49.8757H139.71ZM138 42.6036V41.1367H141.247V42.6036H138Z" fill="white"/>
<path d="M146.381 50C145.695 50 145.075 49.8135 144.522 49.4406C143.968 49.0677 143.526 48.5414 143.196 47.8619C142.873 47.1823 142.712 46.3909 142.712 45.4876C142.712 44.5843 142.873 43.797 143.196 43.1257C143.518 42.4544 143.952 41.9323 144.497 41.5594C145.051 41.1865 145.666 41 146.344 41C147.038 41 147.657 41.1865 148.203 41.5594C148.756 41.9323 149.194 42.4586 149.517 43.1381C149.839 43.8094 150 44.6008 150 45.5124C150 46.4157 149.839 47.2072 149.517 47.8867C149.194 48.558 148.761 49.0801 148.215 49.453C147.67 49.8177 147.058 50 146.381 50ZM146.356 48.471C146.753 48.471 147.096 48.3591 147.385 48.1354C147.674 47.9116 147.897 47.5801 148.054 47.1409C148.219 46.7017 148.302 46.1547 148.302 45.5C148.302 44.8453 148.219 44.2983 148.054 43.8591C147.897 43.4199 147.67 43.0925 147.372 42.8771C147.083 42.6533 146.74 42.5414 146.344 42.5414C145.955 42.5414 145.617 42.6533 145.327 42.8771C145.038 43.0925 144.811 43.4199 144.646 43.8591C144.489 44.2901 144.41 44.8329 144.41 45.4876C144.41 46.1506 144.489 46.7017 144.646 47.1409C144.811 47.5801 145.038 47.9116 145.327 48.1354C145.617 48.3591 145.959 48.471 146.356 48.471Z" fill="white"/>
<path fill-rule="evenodd" clip-rule="evenodd" d="M15.0467 53.0604V45.0127L23.0934 53.0604H114.368C116.025 53.0604 117.368 54.4035 117.368 56.0604V84.551C117.368 86.2078 116.025 87.551 114.368 87.551H9.99805C8.34119 87.551 6.99805 86.2078 6.99805 84.551V56.0604C6.99805 54.4035 8.34119 53.0604 9.99805 53.0604H15.0467Z" fill="white"/>
<path d="M15.0467 45.0127L15.2943 44.7652L14.6967 44.1676V45.0127H15.0467ZM15.0467 53.0604V53.4104H15.3967V53.0604H15.0467ZM23.0934 53.0604L22.8459 53.3078L22.9484 53.4104H23.0934V53.0604ZM14.6967 45.0127V53.0604H15.3967V45.0127H14.6967ZM23.3409 52.8129L15.2943 44.7652L14.7992 45.2602L22.8459 53.3078L23.3409 52.8129ZM23.0934 53.4104H114.368V52.7104H23.0934V53.4104ZM114.368 53.4104C115.832 53.4104 117.018 54.5968 117.018 56.0604H117.718C117.718 54.2102 116.218 52.7104 114.368 52.7104V53.4104ZM117.018 56.0604V84.551H117.718V56.0604H117.018ZM117.018 84.551C117.018 86.0145 115.832 87.201 114.368 87.201V87.901C116.218 87.901 117.718 86.4011 117.718 84.551H117.018ZM114.368 87.201H9.99805V87.901H114.368V87.201ZM9.99805 87.201C8.53449 87.201 7.34805 86.0145 7.34805 84.551H6.64805C6.64805 86.4011 8.1479 87.901 9.99805 87.901V87.201ZM7.34805 84.551V56.0604H6.64805V84.551H7.34805ZM7.34805 56.0604C7.34805 54.5968 8.53449 53.4104 9.99805 53.4104V52.7104C8.14789 52.7104 6.64805 54.2102 6.64805 56.0604H7.34805ZM9.99805 53.4104H15.0467V52.7104H9.99805V53.4104Z" fill="black"/>
<rect x="40.3379" y="59.958" width="68.9812" height="6.89812" rx="3.44906" fill="#EEEEEE"/>
<rect x="40.3379" y="73.7549" width="45.9875" height="6.89812" rx="3.44906" fill="#EEEEEE"/>
<circle cx="24.2437" cy="70.3052" r="10.6972" fill="#FF4A01" fill-opacity="0.3" stroke="#222831" stroke-width="0.7"/>
<path d="M24.1631 69.5879C25.2984 69.5879 26.2188 68.6675 26.2188 67.5322C26.2188 66.3969 25.2984 65.4766 24.1631 65.4766C23.0278 65.4766 22.1074 66.3969 22.1074 67.5322C22.1074 68.6675 23.0278 69.5879 24.1631 69.5879Z" stroke="#FF4A01" stroke-width="0.9" stroke-linecap="round" stroke-linejoin="round"/>
<path d="M27.691 74.5812C27.691 72.9931 26.1117 71.7051 24.1619 71.7051C22.2121 71.7051 20.6328 72.9931 20.6328 74.5812" stroke="#FF4A01" stroke-width="0.9" stroke-linecap="round" stroke-linejoin="round"/>
<path fill-rule="evenodd" clip-rule="evenodd" d="M68.6309 96.748C66.974 96.748 65.6309 98.0912 65.6309 99.748V128.239C65.6309 129.896 66.974 131.239 68.6309 131.239H160.145L167.953 139.047V131.239H173.001C174.658 131.239 176.001 129.896 176.001 128.239V99.748C176.001 98.0912 174.658 96.748 173.001 96.748H68.6309Z" fill="white"/>
<path d="M160.145 131.239L160.393 130.991L160.29 130.889H160.145V131.239ZM167.953 139.047L167.706 139.295L168.303 139.892V139.047H167.953ZM167.953 131.239V130.889H167.603V131.239H167.953ZM65.9809 99.748C65.9809 98.2845 67.1673 97.098 68.6309 97.098V96.398C66.7807 96.398 65.2809 97.8979 65.2809 99.748H65.9809ZM65.9809 128.239V99.748H65.2809V128.239H65.9809ZM68.6309 130.889C67.1673 130.889 65.9809 129.702 65.9809 128.239H65.2809C65.2809 130.089 66.7807 131.589 68.6309 131.589V130.889ZM160.145 130.889H68.6309V131.589H160.145V130.889ZM159.898 131.486L167.706 139.295L168.201 138.8L160.393 130.991L159.898 131.486ZM168.303 139.047V131.239H167.603V139.047H168.303ZM173.001 130.889H167.953V131.589H173.001V130.889ZM175.651 128.239C175.651 129.702 174.464 130.889 173.001 130.889V131.589C174.851 131.589 176.351 130.089 176.351 128.239H175.651ZM175.651 99.748V128.239H176.351V99.748H175.651ZM173.001 97.098C174.464 97.098 175.651 98.2845 175.651 99.748H176.351C176.351 97.8979 174.851 96.398 173.001 96.398V97.098ZM68.6309 97.098H173.001V96.398H68.6309V97.098Z" fill="black"/>
<rect x="98.9707" y="103.646" width="68.9812" height="6.89812" rx="3.44906" fill="#EEEEEE"/>
<rect x="98.9707" y="117.442" width="45.9875" height="6.89812" rx="3.44906" fill="#EEEEEE"/>
<circle cx="82.8784" cy="113.994" r="10.6972" fill="#EEEEEE" stroke="#222831" stroke-width="0.7"/>
<path d="M82.7979 113.276C83.9332 113.276 84.8536 112.356 84.8536 111.221C84.8536 110.085 83.9332 109.165 82.7979 109.165C81.6626 109.165 80.7422 110.085 80.7422 111.221C80.7422 112.356 81.6626 113.276 82.7979 113.276Z" stroke="#222831" stroke-width="0.9" stroke-linecap="round" stroke-linejoin="round"/>
<path d="M86.3257 118.271C86.3257 116.683 84.7465 115.395 82.7967 115.395C80.8468 115.395 79.2676 116.683 79.2676 118.271" stroke="#222831" stroke-width="0.9" stroke-linecap="round" stroke-linejoin="round"/>
</svg>
